# xmcd
#
# Track frame offsets: 
#        150
#        18277
#        36140
#        53435
#        73972
#        95375
#        107725
#        130805
#        150897
#        170335
#
# Disc length: 2569 seconds
#
# Revision: 2
# Processed by: cddbd v1.5PL3 Copyright (c) Steve Scherf et al.
# Submitted via: ExactAudioCopy v0.90b4
#
DISCID=720a070a
DTITLE=Rodney Crowell - Life Is Messy
DYEAR=1900
DGENRE=Country
TTITLE0=It's Not For Me To Judge
TTITLE1=What Kind Of Love
TTITLE2=Lovin' All Night
TTITLE3=Life Is Messy
TTITLE4=I Hardly Know How To Be Myself
TTITLE5=It Don't Get Better Than This
TTITLE6=Alone But Not Alone
TTITLE7=Let's Make Trouble
TTITLE8=The Answer Is Yes
TTITLE9=Maybe Next Time
EXTD=
EXTT0=
EXTT1=
EXTT2=
EXTT3=
EXTT4=
EXTT5=
EXTT6=
EXTT7=
EXTT8=
EXTT9=
PLAYORDER=
